<?xml version="1.0" encoding="UTF-8"?>
<svg width="111px" height="35px" viewBox="0 0 111 35" version="1.1" xmlns="http://www.w3.org/2000/svg" xmlns:xlink="http://www.w3.org/1999/xlink">
    <!-- Generator: Sketch 49.3 (51167) - http://www.bohemiancoding.com/sketch -->
    <title>Page 1</title>
    <desc>Created with Sketch.</desc>
    <defs>
        <polygon id="path-1" points="0.8251 0.0004 20.391 0.0004 20.391 27.4234 0.8251 27.4234"></polygon>
        <polygon id="path-3" points="0 0.3351 10.6479 0.3351 10.6479 27.0561 0 27.0561"></polygon>
        <polygon id="path-5" points="0.3921 0.6801 21.1431 0.6801 21.1431 28 0.3921 28"></polygon>
    </defs>
    <g id="Page-1" stroke="none" stroke-width="1" fill="none" fill-rule="evenodd">
        <g>
            <g id="Group-3" transform="translate(90.000000, 0.000000)">
                <mask id="mask-2" fill="white">
                    <use xlink:href="#path-1"></use>
                </mask>
                <g id="Clip-2"></g>
                <path d="M14.3291,21.9994 C13.4601,22.9364 12.3111,23.4094 10.9151,23.4094 C9.4941,23.4094 8.3501,22.9194 7.5171,21.9524 C6.6861,20.9884 6.2661,19.7804 6.2661,18.3624 C6.2661,16.9214 6.6861,15.6984 7.5171,14.7284 C8.3501,13.7554 9.5061,13.2614 10.9511,13.2614 C12.3351,13.2614 13.4751,13.7294 14.3381,14.6534 C15.2001,15.5764 15.6371,16.8104 15.6371,18.3174 C15.6371,19.8254 15.1971,21.0644 14.3291,21.9994 M11.6911,9.3564 C8.9681,9.3564 6.8871,10.2374 5.6331,12.1454 C5.6331,12.1454 5.6041,11.6954 5.6331,10.9574 C5.7091,9.0124 6.0321,7.4584 6.9151,6.1114 C7.8951,4.6154 9.1181,4.0134 10.9871,4.0134 C12.1021,4.0134 13.0471,4.2784 13.7951,4.8014 C14.5301,5.3144 14.9931,6.0564 15.1731,7.0024 L19.7171,6.0364 C19.3281,4.3914 18.4811,3.0164 17.1801,1.9454 C15.6091,0.6544 13.5871,0.0004 11.1681,0.0004 C7.7731,0.0004 5.1741,1.2584 3.4421,3.7394 C1.7061,6.2284 0.8251,9.7504 0.8251,14.2084 C0.8251,18.3904 1.6901,21.6744 3.3951,23.9714 C5.0981,26.2624 7.6151,27.4234 10.8791,27.4234 C13.6791,27.4234 15.9891,26.5684 17.7451,24.8844 C19.5011,23.2004 20.3911,20.9764 20.3911,18.2724 C20.3911,15.6414 19.5641,13.4744 17.9331,11.8314 C16.3041,10.1884 14.2031,9.3564 11.6911,9.3564" id="Fill-1" fill="#000000" mask="url(#mask-2)"></path>
            </g>
            <g id="Group-6">
                <mask id="mask-4" fill="white">
                    <use xlink:href="#path-3"></use>
                </mask>
                <g id="Clip-5"></g>
                <path d="M10.6479,27.0561 L10.6479,23.1171 L7.4739,23.1171 L7.4739,0.3351 L-0.0001,0.3351 L-0.0001,4.2561 L3.1169,4.2561 L3.1169,24.8361 C3.1349,26.1771 4.2209,27.0151 5.4459,27.0561 L10.6479,27.0561 Z" id="Fill-4" fill="#000000" mask="url(#mask-4)"></path>
            </g>
            <path d="M20.1538,23.9613 C18.0488,23.9613 16.7908,22.9753 16.7908,21.3233 C16.7908,19.5493 18.3788,18.5713 21.2598,18.5713 L25.1568,18.5713 L25.1568,19.6073 C25.1568,22.4353 22.5798,23.9613 20.1538,23.9613 Z M32.6178,23.1223 L29.4198,23.1223 L29.4198,14.4943 C29.4198,9.9143 26.5778,7.2883 21.4888,7.2883 C16.8408,7.2883 13.7538,9.4833 13.2198,13.0753 L17.5108,13.9883 C17.6568,12.0163 19.1208,10.9023 21.4128,10.9023 C23.8278,10.9023 25.1568,12.1643 25.1568,14.4553 L25.1568,15.4153 L21.2598,15.4153 C15.7208,15.4153 12.4138,17.7523 12.4138,21.6673 C12.4138,25.1633 15.0318,27.4233 19.0858,27.4233 C22.4798,27.4233 24.2518,25.9933 25.1628,24.6953 L25.1628,24.8353 C25.1808,26.1763 26.2678,27.0153 27.4928,27.0563 L32.6178,27.0563 L32.6178,23.1223 Z" id="Fill-7" fill="#000000"></path>
            <g id="Group-11" transform="translate(30.000000, 7.000000)">
                <mask id="mask-6" fill="white">
                    <use xlink:href="#path-5"></use>
                </mask>
                <g id="Clip-10"></g>
                <path d="M16.4341,0.6801 L11.3421,16.2591 L5.9461,0.6801 L1.1221,0.6801 C1.1221,0.6801 8.3801,19.8241 8.5101,20.1551 C8.7191,20.7121 8.8241,21.1641 8.8241,21.6171 C8.8241,23.1851 7.9531,23.9861 6.4551,23.9861 L0.3921,23.9861 L0.3921,28.0001 L6.1791,28.0001 C9.0951,28.0001 11.5121,27.3481 12.8931,23.5111 L21.1431,0.6801 L16.4341,0.6801 Z" id="Fill-9" fill="#000000" mask="url(#mask-6)"></path>
            </g>
            <path d="M74.9033,7.6655 C73.6773,7.7065 72.7093,8.5495 72.6913,9.8905 L72.6913,27.0565 L77.0373,27.0565 L77.0373,11.6905 L85.5823,11.6905 L85.5823,7.6655 L74.9033,7.6655 Z" id="Fill-12" fill="#000000"></path>
            <path d="M60.7178,10.7699 C63.4798,10.7699 65.6208,12.7099 65.6998,15.2249 L55.6138,15.2249 C56.1018,12.5029 57.9598,10.7699 60.7178,10.7699 Z M65.4768,20.6519 C64.7378,23.0129 62.5748,23.7499 60.6978,23.7499 C57.7698,23.7499 55.5808,21.9989 55.4668,18.4569 L70.0988,18.4569 L70.0988,17.5849 C70.0988,11.4719 66.5798,7.2889 60.6788,7.2889 C55.0668,7.2889 50.9938,11.5389 50.9938,17.3939 C50.9938,23.3929 54.7478,27.4229 60.7178,27.4229 C65.1968,27.4229 68.4338,25.2869 69.7308,21.5269 L65.4768,20.6519 Z" id="Fill-14" fill="#000000"></path>
        </g>
    </g>
</svg>